<svg width="375" height="812" viewBox="0 0 375 812" fill="none" xmlns="http://www.w3.org/2000/svg">
    <g clip-path="url(#clip0_125_1854)">
        <rect width="375" height="812" rx="28" fill="#16171D"/>
        <rect x="1" width="375" height="812" fill="#16171D"/>
        <rect x="1" width="375" height="812" fill="#16171D"/>
        <path opacity="0.04" d="M292.979 298.995C497.378 367.935 188.491 575.049 157.608 438.514C142.242 370.58 -1.72838 412.605 2.60136 342.512C6.88282 272.438 71.77 278.475 136.121 244.135C216.272 200.976 238.854 280.737 292.979 298.995Z" stroke="#103B6D" stroke-miterlimit="10"/>
        <path opacity="0.07" d="M294.562 295.485C486.321 367.817 198.642 571.427 157.673 441.576C137.478 377.573 -4.16955 404.969 4.48994 337.212C13.0582 269.503 76.132 270.112 139.104 241.76C217.635 206.399 242.331 275.781 294.567 295.485H294.562Z" stroke="#103B6D" stroke-miterlimit="10"/>
        <path opacity="0.11" d="M296.144 291.971C475.22 367.346 208.959 567.943 157.737 444.629C132.81 384.621 -6.61073 397.318 6.37315 331.901C19.2229 266.554 80.392 261.631 142.076 239.374C218.869 211.675 245.743 270.755 296.144 291.966V291.971Z" stroke="#103B6D" stroke-miterlimit="10"/>
        <path opacity="0.15" d="M297.727 288.462C464.103 366.492 219.502 564.581 157.802 447.686C128.261 391.718 -9.05192 389.676 8.2617 326.596C25.3929 263.614 84.6198 253.151 145.054 236.994C220.065 216.946 249.113 265.656 297.727 288.457V288.462Z" stroke="#103B6D" stroke-miterlimit="10"/>
        <path opacity="0.19" d="M299.31 284.953C453.018 365.211 230.302 561.283 157.866 450.749C123.845 398.839 -11.4931 382.035 10.1503 321.3C31.563 260.679 88.8208 244.665 148.032 234.629C221.219 222.222 252.45 260.493 299.31 284.958V284.953Z" stroke="#103B6D" stroke-miterlimit="10"/>
        <path opacity="0.23" d="M300.893 281.439C442.014 363.483 241.381 557.96 157.925 453.802C119.569 405.931 -13.9396 374.388 12.0281 315.99C37.7276 257.73 92.9735 236.145 151.004 232.243C222.329 227.444 255.766 255.207 300.887 281.444L300.893 281.439Z" stroke="#103B6D" stroke-miterlimit="10"/>
        <path opacity="0.26" d="M302.475 277.93C431.15 361.294 252.745 554.554 157.989 456.859C115.432 412.983 -16.3862 366.742 13.9167 310.685C43.8977 254.79 97.1154 227.596 153.982 229.863C223.413 232.626 259.087 249.823 302.47 277.93H302.475Z" stroke="#103B6D" stroke-width="1.5" stroke-miterlimit="10"/>
        <path opacity="0.3" d="M304.058 274.416C420.484 358.639 264.35 550.981 158.054 459.912C111.408 419.952 -18.8274 359.096 15.8052 305.375C50.0676 251.84 101.241 218.997 156.959 227.478C224.486 237.75 262.44 244.307 304.053 274.411L304.058 274.416Z" stroke="#103B6D" stroke-width="1.5" stroke-miterlimit="10"/>
        <path opacity="0.34" d="M305.641 270.907C410.086 355.547 276.148 547.187 158.118 462.974C107.465 426.833 -21.2686 351.454 17.6884 300.074C56.2323 248.905 105.372 210.364 159.937 225.102C225.565 242.829 265.863 238.673 305.641 270.907Z" stroke="#103B6D" stroke-width="1.5" stroke-miterlimit="10"/>
        <path opacity="0.38" d="M307.223 267.393C400.021 352.048 288.064 543.134 158.183 466.027C103.57 433.606 -23.7098 343.808 19.577 294.769C62.4077 245.961 109.531 201.682 162.915 222.722C226.675 247.85 269.399 232.886 307.223 267.393Z" stroke="#103B6D" stroke-width="1.5" stroke-miterlimit="10"/>
        <path opacity="0.41" d="M308.806 263.884C390.352 348.21 300.023 538.825 158.247 469.085C99.68 440.276 -26.1509 336.161 21.4656 289.464C68.5777 243.021 113.726 192.971 165.892 220.342C227.829 252.841 273.101 226.963 308.806 263.884Z" stroke="#103B6D" stroke-width="1.5" stroke-miterlimit="10"/>
        <path opacity="0.45" d="M310.389 260.37C381.14 344.117 311.966 534.27 158.311 472.142C95.7741 446.857 -28.5921 328.52 23.3541 284.158C74.7477 240.076 117.965 184.24 168.875 217.962C229.036 257.813 277.044 220.892 310.394 260.37H310.389Z" stroke="#103B6D" stroke-width="1.5" stroke-miterlimit="10"/>
        <path opacity="0.49" d="M311.972 256.861C372.433 339.896 323.845 529.509 158.376 475.2C91.836 453.36 -31.0333 320.874 25.2373 278.853C80.9124 237.136 122.241 175.509 171.848 215.581C230.281 262.78 281.277 214.703 311.972 256.856V256.861Z" stroke="#103B6D" stroke-width="1.5" stroke-miterlimit="10"/>
        <path opacity="0.53" d="M313.554 253.347C364.261 335.671 335.622 524.572 158.44 478.252C87.8443 459.799 -33.4798 313.227 27.1259 273.543C87.0878 234.187 126.554 166.783 174.826 213.196C231.568 267.756 285.881 208.416 313.554 253.342V253.347Z" stroke="#103B6D" stroke-width="1.5" stroke-miterlimit="10"/>
        <path opacity="0.56" d="M315.137 249.838C356.632 331.612 347.286 519.512 158.504 481.315C83.7989 466.199 -35.921 305.586 29.0144 268.247C93.2578 231.252 130.89 158.076 177.809 210.831C232.893 272.762 290.919 202.104 315.143 249.843L315.137 249.838Z" stroke="#103B6D" stroke-width="1.5" stroke-miterlimit="10"/>
        <path opacity="0.6" d="M316.72 246.329C349.518 327.877 358.826 514.364 158.569 484.372C79.6998 472.559 -38.3622 297.939 30.8976 262.942C99.4224 228.312 135.241 149.38 180.781 208.45C234.229 277.773 296.402 195.808 316.72 246.334V246.329Z" stroke="#103B6D" stroke-width="1.5" stroke-miterlimit="10"/>
        <path d="M209.587 491.189C63.3359 763.185 -120.322 277.567 73.1704 283.177C170.061 285.984 137.076 79.154 231.863 95.973C326.651 112.792 292.593 198.512 327.263 294.754C370.56 414.946 247.38 420.905 209.587 491.189Z" stroke="#3A1949" stroke-miterlimit="10"/>
        <path opacity="0.95" d="M213.74 494.1C65.9434 748.982 -118.32 291.731 69.1572 282.553C162.298 277.994 147.769 77.6963 238.28 99.703C328.776 121.641 302.668 206.114 329.543 299.25C363.526 415.344 252.756 426.818 213.74 494.105V494.1Z" stroke="#3A1949" stroke-miterlimit="10"/>
        <path opacity="0.9" d="M217.892 497.01C68.9265 734.754 -116.646 306.042 65.1386 281.93C154.384 270.092 158.456 76.2436 244.692 103.433C330.89 130.49 312.38 213.775 331.823 303.745C356.042 415.825 258.201 432.683 217.892 497.015V497.01Z" stroke="#3A1949" stroke-miterlimit="10"/>
        <path opacity="0.85" d="M222.04 499.915C72.3334 720.522 -115.273 320.589 61.1147 281.297C146.336 262.314 169.144 74.7762 251.098 107.153C333.003 139.329 322.273 221.363 334.093 308.226C348.783 416.203 263.717 438.489 222.034 499.915H222.04Z" stroke="#3A1949" stroke-miterlimit="10"/>
        <path opacity="0.8" d="M226.192 502.826C76.2125 706.338 -114.114 335.455 57.1015 280.674C138.213 254.721 179.837 73.3186 257.52 110.883C335.133 148.177 332.199 228.926 336.384 312.722C341.566 416.566 269.35 444.276 226.198 502.826H226.192Z" stroke="#3A1949" stroke-miterlimit="10"/>
        <path opacity="0.75" d="M230.34 505.736C80.6119 692.233 -113.062 350.698 53.0775 280.05C130.042 247.32 190.519 71.8658 263.926 114.613C337.242 157.026 342.135 236.469 338.653 317.217C334.356 416.89 275.064 450.032 230.34 505.741V505.736Z" stroke="#3A1949" stroke-miterlimit="10"/>
        <path opacity="0.7" d="M234.492 508.646C85.5802 678.265 -111.973 366.33 49.0643 279.422C121.908 240.111 201.212 70.4033 270.343 118.338C339.367 165.875 352.109 243.978 340.933 321.708C327.204 417.184 280.918 455.77 234.492 508.646Z" stroke="#3A1949" stroke-miterlimit="10"/>
        <path opacity="0.65" d="M238.645 511.557C91.1439 664.499 -110.723 382.329 45.0458 278.799C113.844 233.073 211.899 68.9506 276.754 122.068C341.486 174.724 362.131 251.482 343.214 326.198C320.111 417.459 286.911 461.512 238.645 511.557Z" stroke="#3A1949" stroke-width="1.5" stroke-miterlimit="10"/>
        <path opacity="0.6" d="M242.792 514.467C97.314 651.002 -109.221 398.628 41.0273 278.176C105.893 226.172 222.592 67.493 283.166 125.798C343.605 183.573 372.197 258.981 345.488 330.694C313.072 417.739 293.049 467.298 242.792 514.467Z" stroke="#3A1949" stroke-width="1.5" stroke-miterlimit="10"/>
        <path opacity="0.55" d="M246.945 517.377C104.096 637.864 -107.386 415.148 37.0087 277.552C98.0758 219.355 233.28 66.0354 289.577 129.528C345.719 192.421 382.321 266.49 347.769 335.19C306.102 418.034 299.369 473.163 246.945 517.382V517.377Z" stroke="#3A1949" stroke-width="1.5" stroke-miterlimit="10"/>
        <path opacity="0.5" d="M251.092 520.288C111.446 625.158 -105.208 431.8 32.9901 276.924C90.4035 212.583 243.967 64.5778 295.989 133.253C347.838 201.265 392.488 274.024 350.043 339.68C299.181 418.353 305.866 479.155 251.092 520.288Z" stroke="#3A1949" stroke-width="1.5" stroke-miterlimit="10"/>
        <path opacity="0.45" d="M255.245 523.198C119.301 612.982 -102.691 448.506 28.9715 276.301C82.8546 205.825 254.655 63.1201 302.406 136.983C349.963 210.114 402.698 281.601 352.324 344.171C292.314 418.721 312.557 485.349 255.245 523.198Z" stroke="#3A1949" stroke-width="1.5" stroke-miterlimit="10"/>
        <path opacity="0.4" d="M259.398 526.108C127.536 601.409 -99.8746 465.207 24.9583 275.678C75.4291 199.052 265.348 61.6674 308.822 140.713C352.082 218.963 412.929 289.218 354.609 348.666C285.467 419.143 319.44 491.827 259.403 526.108H259.398Z" stroke="#3A1949" stroke-width="1.5" stroke-miterlimit="10"/>
        <path opacity="0.35" d="M263.545 529.019C135.981 590.519 -96.8111 481.85 20.9344 275.054C68.0841 192.245 276.035 60.2098 315.228 144.443C354.196 227.817 423.156 296.884 356.879 353.162C278.616 419.614 326.463 498.688 263.545 529.024V529.019Z" stroke="#3A1949" stroke-width="2" stroke-miterlimit="10"/>
        <path opacity="0.3" d="M267.698 531.929C144.421 580.354 -93.5383 498.414 16.9212 274.426C60.8303 185.388 286.728 58.7522 321.645 148.168C356.321 236.66 433.387 304.585 359.164 357.653C271.775 420.134 333.615 506.04 267.703 531.929H267.698Z" stroke="#3A1949" stroke-width="2" stroke-miterlimit="10"/>
        <path opacity="0.25" d="M271.851 534.839C152.565 570.936 -90.1045 514.879 12.9027 273.803C53.6302 178.488 297.416 57.2946 328.057 151.898C358.435 245.509 443.597 312.324 361.439 362.143C264.897 420.689 340.772 513.981 271.851 534.839Z" stroke="#3A1949" stroke-width="2" stroke-miterlimit="10"/>
        <path opacity="0.2" d="M275.998 537.75C160.082 562.225 -86.5581 531.247 8.87874 273.179C46.4676 171.544 308.098 55.8369 334.463 155.627C360.549 254.358 453.786 320.083 363.709 366.639C257.992 421.278 347.806 522.589 275.992 537.75H275.998Z" stroke="#3A1949" stroke-width="2" stroke-miterlimit="10"/>
        <path opacity="0.2" d="M46.9343 419.624C-292.079 393.489 120.073 4.52576 198.406 196.456C237.631 292.565 432.813 171.205 456.935 271.285C481.057 371.365 379.44 374.909 297.008 450.302C194.06 544.459 134.543 426.377 46.9343 419.619V419.624Z" stroke="#1B4919" stroke-miterlimit="10"/>
        <path opacity="0.21" d="M45.7916 424.944C-276.235 389.966 106.644 12.6874 197.295 192.254C242.379 281.567 438.935 181.05 455.948 279.177C473.02 377.254 376.124 388.057 293.451 454.474C190.61 537.745 130.981 434.2 45.7969 424.944H45.7916Z" stroke="#1B4919" stroke-miterlimit="10"/>
        <path opacity="0.23" d="M44.6434 430.264C-260.193 386.835 92.9681 20.6381 196.179 188.048C246.993 270.475 445.046 190.895 454.95 287.059C464.972 383.134 372.54 400.886 289.883 458.636C186.833 530.638 127.504 442.062 44.6434 430.259V430.264Z" stroke="#1B4919" stroke-miterlimit="10"/>
        <path opacity="0.24" d="M43.5006 435.579C-243.963 384.15 78.9809 28.417 195.069 183.843C251.447 259.325 451.162 200.735 453.957 294.946C456.93 389.018 369.138 413.852 286.321 462.803C183.276 523.709 124.119 450.003 43.4952 435.579H43.5006Z" stroke="#1B4919" stroke-miterlimit="10"/>
        <path opacity="0.25" d="M42.3524 440.899C-227.578 381.991 64.6128 36.1124 193.958 179.641C255.707 248.159 457.284 210.58 452.965 302.832C448.887 394.903 365.78 426.818 282.758 466.969C179.767 516.779 120.83 458.022 42.3524 440.899Z" stroke="#1B4919" stroke-miterlimit="10"/>
        <path opacity="0.26" d="M41.2096 446.214C-211.075 380.405 49.8369 43.8128 192.847 175.431C259.752 237.009 463.4 220.416 451.978 310.714C440.85 400.787 362.469 439.79 279.201 471.131C176.328 509.854 117.621 466.145 41.2096 446.214Z" stroke="#1B4919" stroke-miterlimit="10"/>
        <path opacity="0.28" d="M40.0615 451.534C-194.517 379.458 34.6479 51.6408 191.731 171.229C263.593 225.937 469.517 230.261 450.98 318.601C432.802 406.672 359.202 452.786 275.633 475.298C172.937 502.963 114.461 474.39 40.0561 451.529L40.0615 451.534Z" stroke="#1B4919" stroke-width="1.5" stroke-miterlimit="10"/>
        <path opacity="0.29" d="M38.9187 456.854C-177.966 379.188 19.1048 59.7092 190.626 167.028C267.274 214.987 475.638 240.106 449.992 326.493C424.765 412.561 355.988 465.826 272.076 479.469C169.611 496.132 111.36 482.797 38.9187 456.854Z" stroke="#1B4919" stroke-width="1.5" stroke-miterlimit="10"/>
        <path opacity="0.3" d="M37.7705 462.169C-161.521 379.625 3.28814 68.1016 189.51 162.817C270.82 204.176 481.749 249.941 449 334.37C416.723 418.436 352.801 478.91 268.513 483.626C166.316 489.349 108.254 491.356 37.7705 462.165V462.169Z" stroke="#1B4919" stroke-width="1.5" stroke-miterlimit="10"/>
        <path opacity="0.31" d="M36.6277 467.489C-145.259 380.773 -12.6949 76.8767 188.4 158.616C274.308 193.535 487.871 259.786 448.007 342.262C408.68 424.33 349.62 492.068 264.956 487.798C163.038 482.66 105.115 500.141 36.6331 467.489H36.6277Z" stroke="#1B4919" stroke-width="1.5" stroke-miterlimit="10"/>
        <path opacity="0.33" d="M35.4795 472.805C-129.308 382.604 -28.7316 86.0445 187.284 154.41C277.768 183.047 493.982 269.626 447.009 350.144C400.632 430.21 346.411 505.28 261.388 491.96C159.722 476.034 101.869 509.142 35.4795 472.805Z" stroke="#1B4919" stroke-width="1.5" stroke-miterlimit="10"/>
        <path opacity="0.34" d="M34.3368 478.125C-113.781 385.063 -44.72 95.5804 186.178 150.209C281.272 172.707 500.104 279.471 446.022 358.035C392.595 436.099 343.181 518.555 257.831 496.131C156.38 469.482 98.4621 518.413 34.3368 478.125Z" stroke="#1B4919" stroke-width="1.5" stroke-miterlimit="10"/>
        <path opacity="0.35" d="M33.1886 483.445C-98.8016 388.052 -60.5904 105.44 185.062 146.003C284.824 162.479 506.22 289.311 445.03 365.922C384.553 441.984 339.898 531.86 254.269 500.298C152.973 462.964 94.7761 527.954 33.1939 483.445H33.1886Z" stroke="#1B4919" stroke-width="1.5" stroke-miterlimit="10"/>
        <path opacity="0.36" d="M32.0458 488.76C-84.4872 391.418 -76.2891 115.545 183.952 141.797C288.456 152.339 512.336 299.152 444.037 373.804C376.51 447.863 336.561 545.18 250.706 504.46C149.502 456.462 90.72 537.769 32.0458 488.76Z" stroke="#1B4919" stroke-width="2" stroke-miterlimit="10"/>
        <path opacity="0.38" d="M30.8976 494.08C-70.956 394.986 -91.8 125.852 182.841 137.596C292.179 142.268 518.458 308.997 443.045 381.696C368.462 453.757 333.175 558.515 247.144 508.632C145.971 449.974 86.165 547.85 30.8976 494.085V494.08Z" stroke="#1B4919" stroke-width="2" stroke-miterlimit="10"/>
        <path opacity="0.39" d="M29.7548 499.395C-58.278 398.5 -107.107 136.291 181.731 133.385C295.994 132.237 524.575 318.832 442.052 389.573C360.42 459.632 329.747 571.825 243.581 512.789C142.393 443.461 80.9982 558.127 29.7548 499.395Z" stroke="#1B4919" stroke-width="2" stroke-miterlimit="10"/>
        <path opacity="0.4" d="M28.6067 504.715C-46.5174 401.725 -122.226 146.813 180.615 129.184C299.889 122.24 530.686 328.677 441.059 397.465C352.377 465.521 326.286 585.14 240.018 516.96C138.771 436.943 75.1447 568.527 28.6067 504.715Z" stroke="#1B4919" stroke-width="2" stroke-miterlimit="10"/>
    </g>
    <defs>
        <filter id="filter0_d_125_1854" x="112" y="274" width="152" height="152" filterUnits="userSpaceOnUse" color-interpolation-filters="sRGB">
            <feFlood flood-opacity="0" result="BackgroundImageFix"/>
            <feColorMatrix in="SourceAlpha" type="matrix" values="0 0 0 0 0 0 0 0 0 0 0 0 0 0 0 0 0 0 127 0" result="hardAlpha"/>
            <feOffset dy="4"/>
            <feGaussianBlur stdDeviation="5.5"/>
            <feComposite in2="hardAlpha" operator="out"/>
            <feColorMatrix type="matrix" values="0 0 0 0 0 0 0 0 0 0 0 0 0 0 0 0 0 0 0.13 0"/>
            <feBlend mode="normal" in2="BackgroundImageFix" result="effect1_dropShadow_125_1854"/>
            <feBlend mode="normal" in="SourceGraphic" in2="effect1_dropShadow_125_1854" result="shape"/>
        </filter>
        <filter id="filter1_d_125_1854" x="171.5" y="584.088" width="100.412" height="100.412" filterUnits="userSpaceOnUse" color-interpolation-filters="sRGB">
            <feFlood flood-opacity="0" result="BackgroundImageFix"/>
            <feColorMatrix in="SourceAlpha" type="matrix" values="0 0 0 0 0 0 0 0 0 0 0 0 0 0 0 0 0 0 127 0" result="hardAlpha"/>
            <feOffset dy="4"/>
            <feGaussianBlur stdDeviation="5"/>
            <feComposite in2="hardAlpha" operator="out"/>
            <feColorMatrix type="matrix" values="0 0 0 0 0 0 0 0 0 0 0 0 0 0 0 0 0 0 0.21 0"/>
            <feBlend mode="normal" in2="BackgroundImageFix" result="effect1_dropShadow_125_1854"/>
            <feBlend mode="normal" in="SourceGraphic" in2="effect1_dropShadow_125_1854" result="shape"/>
        </filter>
        <filter id="filter2_d_125_1854" x="125.166" y="657" width="73.8341" height="73.834" filterUnits="userSpaceOnUse" color-interpolation-filters="sRGB">
            <feFlood flood-opacity="0" result="BackgroundImageFix"/>
            <feColorMatrix in="SourceAlpha" type="matrix" values="0 0 0 0 0 0 0 0 0 0 0 0 0 0 0 0 0 0 127 0" result="hardAlpha"/>
            <feOffset dy="4"/>
            <feGaussianBlur stdDeviation="5"/>
            <feComposite in2="hardAlpha" operator="out"/>
            <feColorMatrix type="matrix" values="0 0 0 0 0 0 0 0 0 0 0 0 0 0 0 0 0 0 0.21 0"/>
            <feBlend mode="normal" in2="BackgroundImageFix" result="effect1_dropShadow_125_1854"/>
            <feBlend mode="normal" in="SourceGraphic" in2="effect1_dropShadow_125_1854" result="shape"/>
        </filter>
        <linearGradient id="paint0_linear_125_1854" x1="123" y1="326.5" x2="251.134" y2="401.355" gradientUnits="userSpaceOnUse">
            <stop stop-color="#0D4D72"/>
            <stop offset="1" stop-color="#258953"/>
        </linearGradient>
        <linearGradient id="paint1_linear_125_1854" x1="88" y1="446.455" x2="243.417" y2="446.455" gradientUnits="userSpaceOnUse">
            <stop stop-color="#07B548"/>
            <stop offset="1" stop-color="#07B548" stop-opacity="0"/>
        </linearGradient>
        <radialGradient id="paint2_angular_125_1854" cx="0" cy="0" r="1" gradientUnits="userSpaceOnUse" gradientTransform="translate(187 665) scale(69.4118)">
            <stop offset="2.19895e-05" stop-color="#07B548"/>
            <stop offset="0.75" stop-color="#00FFC2" stop-opacity="0"/>
            <stop offset="0.848958" stop-color="#02F370" stop-opacity="0.2"/>
        </radialGradient>
        <radialGradient id="paint3_angular_125_1854" cx="0" cy="0" r="1" gradientUnits="userSpaceOnUse" gradientTransform="translate(187 665) rotate(180) scale(49.8341)">
            <stop offset="2.19895e-05" stop-color="#8E7CFF"/>
            <stop offset="0.75" stop-color="#7CB0FF" stop-opacity="0"/>
            <stop offset="0.848958" stop-color="#16B9FF" stop-opacity="0.2"/>
        </radialGradient>
        <clipPath id="clip0_125_1854">
            <rect width="375" height="812" rx="28" fill="white"/>
        </clipPath>
        <clipPath id="clip1_125_1854">
            <rect x="123" y="281" width="130" height="130" rx="30.4688" fill="white"/>
        </clipPath>
    </defs>
</svg>
